<mxfile host="65bd71144e">
    <diagram id="TNDWc-j8mjHTGb_WUdQ3" name="Página-1">
        <mxGraphModel dx="1403" dy="1630" grid="1" gridSize="10" guides="1" tooltips="1" connect="1" arrows="1" fold="1" page="1" pageScale="1" pageWidth="827" pageHeight="1169" math="0" shadow="0">
            <root>
                <mxCell id="0"/>
                <mxCell id="1" parent="0"/>
                <mxCell id="6" style="edgeStyle=none;html=1;exitX=0.5;exitY=1;exitDx=0;exitDy=0;entryX=0.5;entryY=0;entryDx=0;entryDy=0;" parent="1" source="4" target="5" edge="1">
                    <mxGeometry relative="1" as="geometry"/>
                </mxCell>
                <mxCell id="4" value="INICIO" style="ellipse;whiteSpace=wrap;html=1;fillColor=#e3c800;fontColor=#000000;strokeColor=#B09500;" parent="1" vertex="1">
                    <mxGeometry x="120" y="-20" width="120" height="70" as="geometry"/>
                </mxCell>
                <mxCell id="8" value="" style="edgeStyle=none;html=1;exitX=0.517;exitY=0.889;exitDx=0;exitDy=0;exitPerimeter=0;entryX=0.5;entryY=0;entryDx=0;entryDy=0;" parent="1" source="5" target="7" edge="1">
                    <mxGeometry relative="1" as="geometry">
                        <mxPoint x="190" y="260" as="targetPoint"/>
                    </mxGeometry>
                </mxCell>
                <mxCell id="5" value="¡Piedra papel&amp;nbsp; o tijera!&lt;br&gt;1) piedra&lt;br&gt;2) papel&lt;br&gt;3) tijera&lt;br&gt;(Mariana Sofia Delgado Solano)" style="shape=document;whiteSpace=wrap;html=1;boundedLbl=1;fillColor=#1ba1e2;fontColor=#ffffff;strokeColor=#006EAF;" parent="1" vertex="1">
                    <mxGeometry x="100" y="90" width="160" height="130" as="geometry"/>
                </mxCell>
                <mxCell id="11" style="edgeStyle=none;html=1;exitX=0.5;exitY=1;exitDx=0;exitDy=0;entryX=0.5;entryY=0;entryDx=0;entryDy=0;" parent="1" source="7" target="10" edge="1">
                    <mxGeometry relative="1" as="geometry"/>
                </mxCell>
                <mxCell id="7" value="maq = random.randint&lt;br&gt;(1.3)" style="rounded=1;whiteSpace=wrap;html=1;fillColor=#6a00ff;fontColor=#ffffff;strokeColor=#3700CC;" parent="1" vertex="1">
                    <mxGeometry x="110" y="260" width="140" height="60" as="geometry"/>
                </mxCell>
                <mxCell id="15" style="edgeStyle=none;html=1;exitX=0.5;exitY=1;exitDx=0;exitDy=0;entryX=0.5;entryY=0;entryDx=0;entryDy=0;" parent="1" source="10" target="12" edge="1">
                    <mxGeometry relative="1" as="geometry"/>
                </mxCell>
                <mxCell id="10" value="usu" style="shape=parallelogram;perimeter=parallelogramPerimeter;whiteSpace=wrap;html=1;fixedSize=1;fillColor=#d80073;fontColor=#ffffff;strokeColor=#A50040;" parent="1" vertex="1">
                    <mxGeometry x="120" y="350" width="120" height="50" as="geometry"/>
                </mxCell>
                <mxCell id="16" style="edgeStyle=none;html=1;exitX=1;exitY=0.5;exitDx=0;exitDy=0;entryX=0.5;entryY=0;entryDx=0;entryDy=0;" parent="1" source="12" target="19" edge="1">
                    <mxGeometry relative="1" as="geometry">
                        <mxPoint x="320" y="500" as="targetPoint"/>
                        <Array as="points">
                            <mxPoint x="320" y="480"/>
                        </Array>
                    </mxGeometry>
                </mxCell>
                <mxCell id="21" style="edgeStyle=none;html=1;exitX=0.5;exitY=1;exitDx=0;exitDy=0;entryX=0.5;entryY=0;entryDx=0;entryDy=0;" parent="1" source="12" target="20" edge="1">
                    <mxGeometry relative="1" as="geometry"/>
                </mxCell>
                <mxCell id="12" value="usu &amp;lt;= 3" style="rhombus;whiteSpace=wrap;html=1;fillColor=#f0a30a;fontColor=#000000;strokeColor=#BD7000;" parent="1" vertex="1">
                    <mxGeometry x="125" y="430" width="110" height="100" as="geometry"/>
                </mxCell>
                <mxCell id="19" value="No valido" style="shape=document;whiteSpace=wrap;html=1;boundedLbl=1;fillColor=#60a917;fontColor=#ffffff;strokeColor=#2D7600;" parent="1" vertex="1">
                    <mxGeometry x="260" y="505" width="120" height="65" as="geometry"/>
                </mxCell>
                <mxCell id="26" style="edgeStyle=none;html=1;exitX=0;exitY=0.5;exitDx=0;exitDy=0;entryX=0.5;entryY=0.111;entryDx=0;entryDy=0;entryPerimeter=0;" parent="1" source="20" target="23" edge="1">
                    <mxGeometry relative="1" as="geometry">
                        <mxPoint x="-250" y="630" as="targetPoint"/>
                        <Array as="points">
                            <mxPoint x="-180" y="630"/>
                        </Array>
                    </mxGeometry>
                </mxCell>
                <mxCell id="39" style="edgeStyle=none;html=1;exitX=1;exitY=0.5;exitDx=0;exitDy=0;entryX=0.5;entryY=0;entryDx=0;entryDy=0;" parent="1" source="20" target="38" edge="1">
                    <mxGeometry relative="1" as="geometry">
                        <mxPoint x="560" y="630" as="targetPoint"/>
                        <Array as="points">
                            <mxPoint x="515" y="630"/>
                        </Array>
                    </mxGeometry>
                </mxCell>
                <mxCell id="20" value="maq == 1" style="rhombus;whiteSpace=wrap;html=1;fillColor=#0050ef;fontColor=#ffffff;strokeColor=#001DBC;" parent="1" vertex="1">
                    <mxGeometry x="130" y="585" width="100" height="90" as="geometry"/>
                </mxCell>
                <mxCell id="28" style="edgeStyle=none;html=1;exitX=1;exitY=0.5;exitDx=0;exitDy=0;entryX=0.5;entryY=0;entryDx=0;entryDy=0;" parent="1" source="23" target="24" edge="1">
                    <mxGeometry relative="1" as="geometry">
                        <mxPoint x="80" y="725" as="targetPoint"/>
                        <Array as="points">
                            <mxPoint x="20" y="725"/>
                        </Array>
                    </mxGeometry>
                </mxCell>
                <mxCell id="62" style="edgeStyle=none;html=1;exitX=0;exitY=0.5;exitDx=0;exitDy=0;entryX=0.5;entryY=0;entryDx=0;entryDy=0;" parent="1" source="23" target="60" edge="1">
                    <mxGeometry relative="1" as="geometry">
                        <mxPoint x="-730" y="725" as="targetPoint"/>
                        <Array as="points">
                            <mxPoint x="-645" y="725"/>
                        </Array>
                    </mxGeometry>
                </mxCell>
                <mxCell id="23" value="maq == 2" style="rhombus;whiteSpace=wrap;html=1;fillColor=#6a00ff;fontColor=#ffffff;strokeColor=#3700CC;" parent="1" vertex="1">
                    <mxGeometry x="-230" y="680" width="100" height="90" as="geometry"/>
                </mxCell>
                <mxCell id="29" style="edgeStyle=none;html=1;exitX=0;exitY=0.5;exitDx=0;exitDy=0;entryX=0.5;entryY=0;entryDx=0;entryDy=0;" parent="1" source="24" target="25" edge="1">
                    <mxGeometry relative="1" as="geometry">
                        <mxPoint x="-170" y="800" as="targetPoint"/>
                        <Array as="points">
                            <mxPoint x="-115" y="805"/>
                        </Array>
                    </mxGeometry>
                </mxCell>
                <mxCell id="34" style="edgeStyle=none;html=1;exitX=1;exitY=0.5;exitDx=0;exitDy=0;entryX=0.636;entryY=0;entryDx=0;entryDy=0;entryPerimeter=0;" parent="1" source="24" target="33" edge="1">
                    <mxGeometry relative="1" as="geometry">
                        <mxPoint x="170" y="805" as="targetPoint"/>
                        <Array as="points">
                            <mxPoint x="140" y="805"/>
                        </Array>
                    </mxGeometry>
                </mxCell>
                <mxCell id="24" value="usu == 1" style="rhombus;whiteSpace=wrap;html=1;fillColor=#fa6800;fontColor=#000000;strokeColor=#C73500;" parent="1" vertex="1">
                    <mxGeometry x="-30" y="760" width="100" height="90" as="geometry"/>
                </mxCell>
                <mxCell id="32" style="edgeStyle=none;html=1;exitX=0;exitY=0.5;exitDx=0;exitDy=0;entryX=0.445;entryY=-0.017;entryDx=0;entryDy=0;entryPerimeter=0;" parent="1" source="25" target="31" edge="1">
                    <mxGeometry relative="1" as="geometry">
                        <mxPoint x="-250" y="920" as="targetPoint"/>
                        <Array as="points">
                            <mxPoint x="-240" y="885"/>
                        </Array>
                    </mxGeometry>
                </mxCell>
                <mxCell id="36" style="edgeStyle=none;html=1;exitX=1;exitY=0.5;exitDx=0;exitDy=0;entryX=0.571;entryY=-0.017;entryDx=0;entryDy=0;entryPerimeter=0;" parent="1" source="25" target="35" edge="1">
                    <mxGeometry relative="1" as="geometry">
                        <mxPoint x="20" y="890" as="targetPoint"/>
                        <Array as="points">
                            <mxPoint x="-20" y="885"/>
                        </Array>
                    </mxGeometry>
                </mxCell>
                <mxCell id="25" value="usu == 2" style="rhombus;whiteSpace=wrap;html=1;fillColor=#008a00;fontColor=#ffffff;strokeColor=#005700;" parent="1" vertex="1">
                    <mxGeometry x="-160" y="840" width="90" height="90" as="geometry"/>
                </mxCell>
                <mxCell id="27" value="Falso" style="text;html=1;align=center;verticalAlign=middle;resizable=0;points=[];autosize=1;strokeColor=none;fillColor=none;" parent="1" vertex="1">
                    <mxGeometry x="-30" y="605" width="50" height="30" as="geometry"/>
                </mxCell>
                <mxCell id="30" value="Falso" style="text;html=1;align=center;verticalAlign=middle;resizable=0;points=[];autosize=1;strokeColor=none;fillColor=none;" parent="1" vertex="1">
                    <mxGeometry x="-95" y="775" width="50" height="30" as="geometry"/>
                </mxCell>
                <mxCell id="31" value="Ganaste" style="shape=document;whiteSpace=wrap;html=1;boundedLbl=1;fillColor=#6a00ff;fontColor=#ffffff;strokeColor=#3700CC;" parent="1" vertex="1">
                    <mxGeometry x="-290" y="930" width="110" height="60" as="geometry"/>
                </mxCell>
                <mxCell id="33" value="Perdiste" style="shape=document;whiteSpace=wrap;html=1;boundedLbl=1;fillColor=#d80073;fontColor=#ffffff;strokeColor=#A50040;" parent="1" vertex="1">
                    <mxGeometry x="70" y="840" width="110" height="60" as="geometry"/>
                </mxCell>
                <mxCell id="35" value="Empate" style="shape=document;whiteSpace=wrap;html=1;boundedLbl=1;fillColor=#1ba1e2;fontColor=#ffffff;strokeColor=#006EAF;" parent="1" vertex="1">
                    <mxGeometry x="-80" y="930" width="105" height="60" as="geometry"/>
                </mxCell>
                <mxCell id="37" value="Verdadero" style="text;html=1;align=center;verticalAlign=middle;resizable=0;points=[];autosize=1;strokeColor=none;fillColor=none;" parent="1" vertex="1">
                    <mxGeometry x="230" y="445" width="80" height="30" as="geometry"/>
                </mxCell>
                <mxCell id="42" style="edgeStyle=none;html=1;exitX=1;exitY=0.5;exitDx=0;exitDy=0;entryX=0.5;entryY=0;entryDx=0;entryDy=0;" parent="1" source="38" target="41" edge="1">
                    <mxGeometry relative="1" as="geometry">
                        <mxPoint x="790" y="725" as="targetPoint"/>
                        <Array as="points">
                            <mxPoint x="730" y="725"/>
                        </Array>
                    </mxGeometry>
                </mxCell>
                <mxCell id="52" style="edgeStyle=none;html=1;exitX=0;exitY=0.5;exitDx=0;exitDy=0;entryX=0.5;entryY=0;entryDx=0;entryDy=0;" parent="1" source="38" target="44" edge="1">
                    <mxGeometry relative="1" as="geometry">
                        <mxPoint x="370" y="725" as="targetPoint"/>
                        <Array as="points">
                            <mxPoint x="415" y="725"/>
                        </Array>
                    </mxGeometry>
                </mxCell>
                <mxCell id="38" value="usu == 1" style="rhombus;whiteSpace=wrap;html=1;fillColor=#d80073;fontColor=#ffffff;strokeColor=#A50040;" parent="1" vertex="1">
                    <mxGeometry x="470" y="680" width="90" height="90" as="geometry"/>
                </mxCell>
                <mxCell id="40" value="Verdadero" style="text;html=1;align=center;verticalAlign=middle;resizable=0;points=[];autosize=1;strokeColor=none;fillColor=none;" parent="1" vertex="1">
                    <mxGeometry x="310" y="595" width="80" height="30" as="geometry"/>
                </mxCell>
                <mxCell id="41" value="Empate" style="shape=document;whiteSpace=wrap;html=1;boundedLbl=1;fillColor=#f0a30a;fontColor=#000000;strokeColor=#BD7000;" parent="1" vertex="1">
                    <mxGeometry x="670" y="760" width="120" height="70" as="geometry"/>
                </mxCell>
                <mxCell id="43" value="Verdadero" style="text;html=1;align=center;verticalAlign=middle;resizable=0;points=[];autosize=1;strokeColor=none;fillColor=none;" parent="1" vertex="1">
                    <mxGeometry x="590" y="685" width="80" height="30" as="geometry"/>
                </mxCell>
                <mxCell id="46" style="edgeStyle=none;html=1;exitX=1;exitY=0.5;exitDx=0;exitDy=0;entryX=0.5;entryY=0;entryDx=0;entryDy=0;" parent="1" source="44" target="45" edge="1">
                    <mxGeometry relative="1" as="geometry">
                        <mxPoint x="580" y="840" as="targetPoint"/>
                        <Array as="points">
                            <mxPoint x="518" y="835"/>
                        </Array>
                    </mxGeometry>
                </mxCell>
                <mxCell id="49" style="edgeStyle=none;html=1;exitX=0;exitY=0.5;exitDx=0;exitDy=0;" parent="1" source="44" edge="1">
                    <mxGeometry relative="1" as="geometry">
                        <mxPoint x="310" y="900" as="targetPoint"/>
                        <Array as="points">
                            <mxPoint x="310" y="835"/>
                        </Array>
                    </mxGeometry>
                </mxCell>
                <mxCell id="44" value="usu == 2" style="rhombus;whiteSpace=wrap;html=1;fillColor=#fa6800;fontColor=#000000;strokeColor=#C73500;" parent="1" vertex="1">
                    <mxGeometry x="370" y="790" width="90" height="90" as="geometry"/>
                </mxCell>
                <mxCell id="45" value="Perdiste" style="shape=document;whiteSpace=wrap;html=1;boundedLbl=1;fillColor=#0050ef;fontColor=#ffffff;strokeColor=#001DBC;" parent="1" vertex="1">
                    <mxGeometry x="460" y="890" width="115" height="70" as="geometry"/>
                </mxCell>
                <mxCell id="47" value="Verdadero" style="text;html=1;align=center;verticalAlign=middle;resizable=0;points=[];autosize=1;strokeColor=none;fillColor=none;" parent="1" vertex="1">
                    <mxGeometry x="440" y="805" width="80" height="30" as="geometry"/>
                </mxCell>
                <mxCell id="48" value="Ganaste" style="shape=document;whiteSpace=wrap;html=1;boundedLbl=1;fillColor=#6a00ff;fontColor=#ffffff;strokeColor=#3700CC;" parent="1" vertex="1">
                    <mxGeometry x="270" y="890" width="110" height="70" as="geometry"/>
                </mxCell>
                <mxCell id="50" value="Falso" style="text;html=1;align=center;verticalAlign=middle;resizable=0;points=[];autosize=1;strokeColor=none;fillColor=none;" parent="1" vertex="1">
                    <mxGeometry x="315" y="805" width="50" height="30" as="geometry"/>
                </mxCell>
                <mxCell id="53" value="Falso" style="text;html=1;align=center;verticalAlign=middle;resizable=0;points=[];autosize=1;strokeColor=none;fillColor=none;" parent="1" vertex="1">
                    <mxGeometry x="425" y="695" width="50" height="30" as="geometry"/>
                </mxCell>
                <mxCell id="54" value="" style="endArrow=none;html=1;entryX=0.522;entryY=0.857;entryDx=0;entryDy=0;entryPerimeter=0;exitX=0.364;exitY=1.014;exitDx=0;exitDy=0;exitPerimeter=0;" parent="1" source="48" target="45" edge="1">
                    <mxGeometry width="50" height="50" relative="1" as="geometry">
                        <mxPoint x="320" y="970" as="sourcePoint"/>
                        <mxPoint x="530" y="990" as="targetPoint"/>
                        <Array as="points">
                            <mxPoint x="310" y="1040"/>
                            <mxPoint x="420" y="1040"/>
                            <mxPoint x="520" y="1040"/>
                        </Array>
                    </mxGeometry>
                </mxCell>
                <mxCell id="58" value="Verdadero" style="text;html=1;align=center;verticalAlign=middle;resizable=0;points=[];autosize=1;strokeColor=none;fillColor=none;" parent="1" vertex="1">
                    <mxGeometry x="-90" y="855" width="80" height="30" as="geometry"/>
                </mxCell>
                <mxCell id="59" value="Falso" style="text;html=1;align=center;verticalAlign=middle;resizable=0;points=[];autosize=1;strokeColor=none;fillColor=none;" parent="1" vertex="1">
                    <mxGeometry x="-225" y="855" width="50" height="30" as="geometry"/>
                </mxCell>
                <mxCell id="67" style="edgeStyle=none;html=1;exitX=1;exitY=0.5;exitDx=0;exitDy=0;entryX=0.5;entryY=0;entryDx=0;entryDy=0;" parent="1" source="60" target="63" edge="1">
                    <mxGeometry relative="1" as="geometry">
                        <mxPoint x="-430" y="808" as="targetPoint"/>
                        <Array as="points">
                            <mxPoint x="-500" y="808"/>
                        </Array>
                    </mxGeometry>
                </mxCell>
                <mxCell id="60" value="maq == 3" style="rhombus;whiteSpace=wrap;html=1;fillColor=#d80073;fontColor=#ffffff;strokeColor=#A50040;" parent="1" vertex="1">
                    <mxGeometry x="-700" y="765" width="110" height="85" as="geometry"/>
                </mxCell>
                <mxCell id="69" style="edgeStyle=none;html=1;exitX=1;exitY=0.5;exitDx=0;exitDy=0;entryX=0.5;entryY=0;entryDx=0;entryDy=0;" parent="1" source="63" target="68" edge="1">
                    <mxGeometry relative="1" as="geometry">
                        <mxPoint x="-350" y="895" as="targetPoint"/>
                        <Array as="points">
                            <mxPoint x="-400" y="895"/>
                        </Array>
                    </mxGeometry>
                </mxCell>
                <mxCell id="70" style="edgeStyle=none;html=1;exitX=0;exitY=0.5;exitDx=0;exitDy=0;entryX=0.5;entryY=0;entryDx=0;entryDy=0;" parent="1" source="63" target="64" edge="1">
                    <mxGeometry relative="1" as="geometry">
                        <mxPoint x="-630" y="890" as="targetPoint"/>
                        <Array as="points">
                            <mxPoint x="-610" y="895"/>
                        </Array>
                    </mxGeometry>
                </mxCell>
                <mxCell id="63" value="usu == 1" style="rhombus;whiteSpace=wrap;html=1;fillColor=#6a00ff;fontColor=#ffffff;strokeColor=#3700CC;" parent="1" vertex="1">
                    <mxGeometry x="-540" y="855" width="80" height="80" as="geometry"/>
                </mxCell>
                <mxCell id="71" style="edgeStyle=none;html=1;exitX=1;exitY=0.5;exitDx=0;exitDy=0;entryX=0.5;entryY=0;entryDx=0;entryDy=0;" parent="1" source="64" target="65" edge="1">
                    <mxGeometry relative="1" as="geometry">
                        <mxPoint x="-450" y="1000" as="targetPoint"/>
                        <Array as="points">
                            <mxPoint x="-480" y="970"/>
                        </Array>
                    </mxGeometry>
                </mxCell>
                <mxCell id="72" style="edgeStyle=none;html=1;exitX=0;exitY=0.5;exitDx=0;exitDy=0;entryX=0.5;entryY=0;entryDx=0;entryDy=0;" parent="1" source="64" target="66" edge="1">
                    <mxGeometry relative="1" as="geometry">
                        <mxPoint x="-740" y="970" as="targetPoint"/>
                        <Array as="points">
                            <mxPoint x="-710" y="970"/>
                        </Array>
                    </mxGeometry>
                </mxCell>
                <mxCell id="64" value="usu == 2" style="rhombus;whiteSpace=wrap;html=1;fillColor=#60a917;fontColor=#ffffff;strokeColor=#2D7600;" parent="1" vertex="1">
                    <mxGeometry x="-650" y="930" width="80" height="80" as="geometry"/>
                </mxCell>
                <mxCell id="65" value="Perdiste" style="shape=document;whiteSpace=wrap;html=1;boundedLbl=1;fillColor=#f0a30a;fontColor=#000000;strokeColor=#BD7000;" parent="1" vertex="1">
                    <mxGeometry x="-540" y="1020" width="120" height="70" as="geometry"/>
                </mxCell>
                <mxCell id="66" value="Empataste" style="shape=document;whiteSpace=wrap;html=1;boundedLbl=1;fillColor=#1ba1e2;fontColor=#ffffff;strokeColor=#006EAF;" parent="1" vertex="1">
                    <mxGeometry x="-770" y="1020" width="120" height="70" as="geometry"/>
                </mxCell>
                <mxCell id="68" value="Ganaste" style="shape=document;whiteSpace=wrap;html=1;boundedLbl=1;fillColor=#fa6800;fontColor=#000000;strokeColor=#C73500;" parent="1" vertex="1">
                    <mxGeometry x="-450" y="930" width="100" height="50" as="geometry"/>
                </mxCell>
                <mxCell id="73" value="Verdadero" style="text;html=1;align=center;verticalAlign=middle;resizable=0;points=[];autosize=1;strokeColor=none;fillColor=none;" parent="1" vertex="1">
                    <mxGeometry x="-570" y="945" width="80" height="30" as="geometry"/>
                </mxCell>
                <mxCell id="74" value="Falso" style="text;html=1;align=center;verticalAlign=middle;resizable=0;points=[];autosize=1;strokeColor=none;fillColor=none;" parent="1" vertex="1">
                    <mxGeometry x="-695" y="935" width="50" height="30" as="geometry"/>
                </mxCell>
                <mxCell id="75" value="Verdadero" style="text;html=1;align=center;verticalAlign=middle;resizable=0;points=[];autosize=1;strokeColor=none;fillColor=none;" parent="1" vertex="1">
                    <mxGeometry x="-480" y="865" width="80" height="30" as="geometry"/>
                </mxCell>
                <mxCell id="76" value="Falso" style="text;html=1;align=center;verticalAlign=middle;resizable=0;points=[];autosize=1;strokeColor=none;fillColor=none;" parent="1" vertex="1">
                    <mxGeometry x="-595" y="865" width="50" height="30" as="geometry"/>
                </mxCell>
                <mxCell id="77" value="Falso" style="text;html=1;align=center;verticalAlign=middle;resizable=0;points=[];autosize=1;strokeColor=none;fillColor=none;" parent="1" vertex="1">
                    <mxGeometry x="-465" y="695" width="50" height="30" as="geometry"/>
                </mxCell>
                <mxCell id="78" value="" style="endArrow=none;html=1;entryX=0.619;entryY=0.833;entryDx=0;entryDy=0;entryPerimeter=0;exitX=0.427;exitY=0.95;exitDx=0;exitDy=0;exitPerimeter=0;" parent="1" source="31" target="35" edge="1">
                    <mxGeometry width="50" height="50" relative="1" as="geometry">
                        <mxPoint x="-240" y="990" as="sourcePoint"/>
                        <mxPoint x="-20" y="1010" as="targetPoint"/>
                        <Array as="points">
                            <mxPoint x="-240" y="1040"/>
                            <mxPoint x="-100" y="1040"/>
                            <mxPoint x="-15" y="1040"/>
                        </Array>
                    </mxGeometry>
                </mxCell>
                <mxCell id="79" value="" style="endArrow=none;html=1;entryX=0.517;entryY=0.9;entryDx=0;entryDy=0;entryPerimeter=0;exitX=0.517;exitY=0.9;exitDx=0;exitDy=0;exitPerimeter=0;" parent="1" source="66" target="65" edge="1">
                    <mxGeometry width="50" height="50" relative="1" as="geometry">
                        <mxPoint x="-700" y="1100" as="sourcePoint"/>
                        <mxPoint x="-490" y="1140" as="targetPoint"/>
                        <Array as="points">
                            <mxPoint x="-710" y="1160"/>
                            <mxPoint x="-580" y="1160"/>
                            <mxPoint x="-480" y="1160"/>
                        </Array>
                    </mxGeometry>
                </mxCell>
                <mxCell id="83" value="" style="endArrow=classic;html=1;" parent="1" edge="1">
                    <mxGeometry width="50" height="50" relative="1" as="geometry">
                        <mxPoint x="-120" y="1040" as="sourcePoint"/>
                        <mxPoint x="-120" y="1240" as="targetPoint"/>
                    </mxGeometry>
                </mxCell>
                <mxCell id="84" value="" style="endArrow=classic;html=1;exitX=0.46;exitY=0.98;exitDx=0;exitDy=0;exitPerimeter=0;" parent="1" source="68" edge="1">
                    <mxGeometry width="50" height="50" relative="1" as="geometry">
                        <mxPoint x="-380" y="1120" as="sourcePoint"/>
                        <mxPoint x="-404" y="1240" as="targetPoint"/>
                    </mxGeometry>
                </mxCell>
                <mxCell id="85" value="" style="endArrow=classic;html=1;exitX=0.682;exitY=0.767;exitDx=0;exitDy=0;exitPerimeter=0;" parent="1" source="33" edge="1">
                    <mxGeometry width="50" height="50" relative="1" as="geometry">
                        <mxPoint x="150" y="930" as="sourcePoint"/>
                        <mxPoint x="145" y="1240" as="targetPoint"/>
                    </mxGeometry>
                </mxCell>
                <mxCell id="86" value="" style="endArrow=classic;html=1;" parent="1" edge="1">
                    <mxGeometry width="50" height="50" relative="1" as="geometry">
                        <mxPoint x="414" y="1040" as="sourcePoint"/>
                        <mxPoint x="414" y="1240" as="targetPoint"/>
                    </mxGeometry>
                </mxCell>
                <mxCell id="87" value="Verdadero" style="text;html=1;align=center;verticalAlign=middle;resizable=0;points=[];autosize=1;strokeColor=none;fillColor=none;" parent="1" vertex="1">
                    <mxGeometry x="60" y="775" width="80" height="30" as="geometry"/>
                </mxCell>
                <mxCell id="88" value="Falso" style="text;html=1;align=center;verticalAlign=middle;resizable=0;points=[];autosize=1;strokeColor=none;fillColor=none;" parent="1" vertex="1">
                    <mxGeometry x="130" y="540" width="50" height="30" as="geometry"/>
                </mxCell>
                <mxCell id="93" value="" style="edgeStyle=none;html=1;exitX=0.48;exitY=0.929;exitDx=0;exitDy=0;exitPerimeter=0;entryX=0.5;entryY=0;entryDx=0;entryDy=0;" edge="1" parent="1" source="89" target="90">
                    <mxGeometry relative="1" as="geometry"/>
                </mxCell>
                <mxCell id="89" value="r" style="shape=document;whiteSpace=wrap;html=1;boundedLbl=1;fillColor=#d80073;fontColor=#ffffff;strokeColor=#A50040;" vertex="1" parent="1">
                    <mxGeometry x="130" y="1280" width="100" height="70" as="geometry"/>
                </mxCell>
                <mxCell id="90" value="Fin" style="ellipse;whiteSpace=wrap;html=1;fillColor=#1ba1e2;fontColor=#ffffff;strokeColor=#006EAF;" vertex="1" parent="1">
                    <mxGeometry x="115" y="1390" width="120" height="70" as="geometry"/>
                </mxCell>
                <mxCell id="91" value="" style="endArrow=classic;html=1;entryX=0.5;entryY=0;entryDx=0;entryDy=0;" edge="1" parent="1" target="89">
                    <mxGeometry width="50" height="50" relative="1" as="geometry">
                        <mxPoint x="-600" y="1160" as="sourcePoint"/>
                        <mxPoint x="180" y="1240" as="targetPoint"/>
                        <Array as="points">
                            <mxPoint x="-600" y="1240"/>
                            <mxPoint x="-490" y="1240"/>
                            <mxPoint x="-240" y="1240"/>
                            <mxPoint x="180" y="1240"/>
                        </Array>
                    </mxGeometry>
                </mxCell>
                <mxCell id="92" value="" style="endArrow=none;html=1;entryX=0.525;entryY=0.871;entryDx=0;entryDy=0;entryPerimeter=0;" edge="1" parent="1" target="41">
                    <mxGeometry width="50" height="50" relative="1" as="geometry">
                        <mxPoint x="180" y="1240" as="sourcePoint"/>
                        <mxPoint x="750" y="850" as="targetPoint"/>
                        <Array as="points">
                            <mxPoint x="570" y="1240"/>
                            <mxPoint x="740" y="1240"/>
                        </Array>
                    </mxGeometry>
                </mxCell>
                <mxCell id="95" value="&lt;br&gt;Verdadero" style="text;html=1;align=center;verticalAlign=middle;resizable=0;points=[];autosize=1;strokeColor=none;fillColor=none;" vertex="1" parent="1">
                    <mxGeometry x="-100" y="680" width="80" height="40" as="geometry"/>
                </mxCell>
            </root>
        </mxGraphModel>
    </diagram>
</mxfile>